<svg xmlns="http://www.w3.org/2000/svg" xmlns:xlink="http://www.w3.org/1999/xlink" width="320" zoomAndPan="magnify" viewBox="0 0 240 98.999996" height="132" preserveAspectRatio="xMidYMid meet" version="1.0"><defs><g/><clipPath id="dfb8ee8bff"><path d="M 11.027344 31.367188 L 56.027344 31.367188 L 56.027344 71.867188 L 11.027344 71.867188 Z M 11.027344 31.367188 " clip-rule="nonzero"/></clipPath></defs><rect x="-24" width="288" fill="#ffffff" y="-9.9" height="118.799995" fill-opacity="1"/><rect x="-24" width="288" fill="#6c86ff" y="-9.9" height="118.799995" fill-opacity="1"/><path stroke-linecap="butt" transform="matrix(0.22252, -0.71623, 0.71623, 0.22252, 59.020855, 80.059862)" fill="none" stroke-linejoin="miter" d="M 0.00119263 1.999365 L 86.588372 2.002389 " stroke="#000000" stroke-width="4" stroke-opacity="1" stroke-miterlimit="4"/><g fill="#000000" fill-opacity="1"><g transform="translate(84.771955, 69.329675)"><g><path d="M 19.0625 -22.21875 L 19.0625 0 L 13.65625 0 L 13.65625 -1.609375 C 12.59375 -0.359375 11.003906 0.265625 8.890625 0.265625 C 7.410156 0.265625 6.0625 -0.078125 4.84375 -0.765625 C 3.632812 -1.453125 2.671875 -2.429688 1.953125 -3.703125 C 1.242188 -4.984375 0.890625 -6.460938 0.890625 -8.140625 C 0.890625 -9.816406 1.242188 -11.285156 1.953125 -12.546875 C 2.671875 -13.816406 3.632812 -14.789062 4.84375 -15.46875 C 6.0625 -16.15625 7.410156 -16.5 8.890625 -16.5 C 10.828125 -16.5 12.320312 -15.9375 13.375 -14.8125 L 13.375 -22.21875 Z M 10.09375 -4.25 C 11.070312 -4.25 11.878906 -4.59375 12.515625 -5.28125 C 13.148438 -5.96875 13.46875 -6.921875 13.46875 -8.140625 C 13.46875 -9.335938 13.148438 -10.273438 12.515625 -10.953125 C 11.890625 -11.628906 11.082031 -11.96875 10.09375 -11.96875 C 9.09375 -11.96875 8.269531 -11.628906 7.625 -10.953125 C 6.988281 -10.273438 6.671875 -9.335938 6.671875 -8.140625 C 6.671875 -6.921875 6.988281 -5.96875 7.625 -5.28125 C 8.269531 -4.59375 9.09375 -4.25 10.09375 -4.25 Z M 10.09375 -4.25 "/></g></g></g><g fill="#000000" fill-opacity="1"><g transform="translate(102.737482, 69.329675)"><g><path d="M 1.828125 -16.21875 L 7.515625 -16.21875 L 7.515625 0 L 1.828125 0 Z M 4.671875 -18.015625 C 3.640625 -18.015625 2.800781 -18.304688 2.15625 -18.890625 C 1.519531 -19.472656 1.203125 -20.191406 1.203125 -21.046875 C 1.203125 -21.898438 1.519531 -22.613281 2.15625 -23.1875 C 2.800781 -23.769531 3.640625 -24.0625 4.671875 -24.0625 C 5.710938 -24.0625 6.550781 -23.785156 7.1875 -23.234375 C 7.820312 -22.691406 8.140625 -21.992188 8.140625 -21.140625 C 8.140625 -20.234375 7.820312 -19.484375 7.1875 -18.890625 C 6.550781 -18.304688 5.710938 -18.015625 4.671875 -18.015625 Z M 4.671875 -18.015625 "/></g></g></g><g fill="#000000" fill-opacity="1"><g transform="translate(109.175122, 69.329675)"><g><path d="M 19.28125 -16.21875 L 19.28125 -2.96875 C 19.28125 0.0507812 18.460938 2.3125 16.828125 3.8125 C 15.191406 5.320312 12.835938 6.078125 9.765625 6.078125 C 8.160156 6.078125 6.660156 5.894531 5.265625 5.53125 C 3.867188 5.175781 2.679688 4.648438 1.703125 3.953125 L 3.765625 -0.03125 C 4.429688 0.507812 5.265625 0.929688 6.265625 1.234375 C 7.273438 1.546875 8.269531 1.703125 9.25 1.703125 C 10.75 1.703125 11.847656 1.375 12.546875 0.71875 C 13.242188 0.0625 13.59375 -0.914062 13.59375 -2.21875 L 13.59375 -2.75 C 12.488281 -1.476562 10.878906 -0.84375 8.765625 -0.84375 C 7.328125 -0.84375 6 -1.164062 4.78125 -1.8125 C 3.570312 -2.457031 2.609375 -3.375 1.890625 -4.5625 C 1.171875 -5.75 0.8125 -7.125 0.8125 -8.6875 C 0.8125 -10.21875 1.171875 -11.578125 1.890625 -12.765625 C 2.609375 -13.953125 3.570312 -14.867188 4.78125 -15.515625 C 6 -16.171875 7.328125 -16.5 8.765625 -16.5 C 11.085938 -16.5 12.785156 -15.75 13.859375 -14.25 L 13.859375 -16.21875 Z M 10.125 -5.359375 C 11.132812 -5.359375 11.972656 -5.664062 12.640625 -6.28125 C 13.316406 -6.90625 13.65625 -7.707031 13.65625 -8.6875 C 13.65625 -9.664062 13.320312 -10.457031 12.65625 -11.0625 C 12 -11.664062 11.15625 -11.96875 10.125 -11.96875 C 9.082031 -11.96875 8.226562 -11.664062 7.5625 -11.0625 C 6.894531 -10.457031 6.5625 -9.664062 6.5625 -8.6875 C 6.5625 -7.707031 6.898438 -6.90625 7.578125 -6.28125 C 8.253906 -5.664062 9.101562 -5.359375 10.125 -5.359375 Z M 10.125 -5.359375 "/></g></g></g><g fill="#000000" fill-opacity="1"><g transform="translate(127.350247, 69.329675)"><g><path d="M 1.828125 -16.21875 L 7.515625 -16.21875 L 7.515625 0 L 1.828125 0 Z M 4.671875 -18.015625 C 3.640625 -18.015625 2.800781 -18.304688 2.15625 -18.890625 C 1.519531 -19.472656 1.203125 -20.191406 1.203125 -21.046875 C 1.203125 -21.898438 1.519531 -22.613281 2.15625 -23.1875 C 2.800781 -23.769531 3.640625 -24.0625 4.671875 -24.0625 C 5.710938 -24.0625 6.550781 -23.785156 7.1875 -23.234375 C 7.820312 -22.691406 8.140625 -21.992188 8.140625 -21.140625 C 8.140625 -20.234375 7.820312 -19.484375 7.1875 -18.890625 C 6.550781 -18.304688 5.710938 -18.015625 4.671875 -18.015625 Z M 4.671875 -18.015625 "/></g></g></g><g fill="#000000" fill-opacity="1"><g transform="translate(133.787886, 69.329675)"><g><path d="M 13.015625 -0.65625 C 12.535156 -0.351562 11.953125 -0.125 11.265625 0.03125 C 10.578125 0.1875 9.847656 0.265625 9.078125 0.265625 C 6.953125 0.265625 5.320312 -0.25 4.1875 -1.28125 C 3.050781 -2.320312 2.484375 -3.867188 2.484375 -5.921875 L 2.484375 -11.375 L 0.125 -11.375 L 0.125 -15.625 L 2.484375 -15.625 L 2.484375 -19.84375 L 8.171875 -19.84375 L 8.171875 -15.625 L 11.890625 -15.625 L 11.890625 -11.375 L 8.171875 -11.375 L 8.171875 -5.984375 C 8.171875 -5.410156 8.320312 -4.957031 8.625 -4.625 C 8.9375 -4.289062 9.351562 -4.125 9.875 -4.125 C 10.539062 -4.125 11.117188 -4.296875 11.609375 -4.640625 Z M 13.015625 -0.65625 "/></g></g></g><g fill="#000000" fill-opacity="1"><g transform="translate(144.237825, 69.329675)"><g><path d="M 8.734375 -16.5 C 11.429688 -16.5 13.488281 -15.882812 14.90625 -14.65625 C 16.320312 -13.425781 17.03125 -11.546875 17.03125 -9.015625 L 17.03125 0 L 11.734375 0 L 11.734375 -2.09375 C 10.921875 -0.519531 9.328125 0.265625 6.953125 0.265625 C 5.691406 0.265625 4.601562 0.046875 3.6875 -0.390625 C 2.769531 -0.828125 2.070312 -1.421875 1.59375 -2.171875 C 1.125 -2.921875 0.890625 -3.773438 0.890625 -4.734375 C 0.890625 -6.265625 1.476562 -7.453125 2.65625 -8.296875 C 3.84375 -9.148438 5.660156 -9.578125 8.109375 -9.578125 L 11.34375 -9.578125 C 11.25 -11.296875 10.101562 -12.15625 7.90625 -12.15625 C 7.125 -12.15625 6.332031 -12.03125 5.53125 -11.78125 C 4.738281 -11.53125 4.0625 -11.1875 3.5 -10.75 L 1.59375 -14.609375 C 2.488281 -15.203125 3.578125 -15.664062 4.859375 -16 C 6.148438 -16.332031 7.441406 -16.5 8.734375 -16.5 Z M 8.53125 -3.328125 C 9.1875 -3.328125 9.765625 -3.484375 10.265625 -3.796875 C 10.765625 -4.117188 11.125 -4.585938 11.34375 -5.203125 L 11.34375 -6.609375 L 8.890625 -6.609375 C 7.234375 -6.609375 6.40625 -6.0625 6.40625 -4.96875 C 6.40625 -4.46875 6.59375 -4.066406 6.96875 -3.765625 C 7.351562 -3.472656 7.875 -3.328125 8.53125 -3.328125 Z M 8.53125 -3.328125 "/></g></g></g><g fill="#000000" fill-opacity="1"><g transform="translate(160.107374, 69.329675)"><g><path d="M 1.828125 -22.21875 L 7.515625 -22.21875 L 7.515625 0 L 1.828125 0 Z M 1.828125 -22.21875 "/></g></g></g><g fill="#000000" fill-opacity="1"><g transform="translate(166.545013, 69.329675)"><g><path d="M 12.390625 -16.5 C 14.410156 -16.5 16.03125 -15.898438 17.25 -14.703125 C 18.476562 -13.503906 19.09375 -11.695312 19.09375 -9.28125 L 19.09375 0 L 13.40625 0 L 13.40625 -8.359375 C 13.40625 -10.566406 12.519531 -11.671875 10.75 -11.671875 C 9.769531 -11.671875 8.984375 -11.351562 8.390625 -10.71875 C 7.804688 -10.082031 7.515625 -9.125 7.515625 -7.84375 L 7.515625 0 L 1.828125 0 L 1.828125 -22.21875 L 7.515625 -22.21875 L 7.515625 -14.734375 C 8.128906 -15.304688 8.851562 -15.742188 9.6875 -16.046875 C 10.53125 -16.347656 11.429688 -16.5 12.390625 -16.5 Z M 12.390625 -16.5 "/></g></g></g><g fill="#000000" fill-opacity="1"><g transform="translate(184.450652, 69.329675)"><g><path d="M 18.890625 -16.21875 L 18.890625 0 L 13.46875 0 L 13.46875 -1.734375 C 12.875 -1.078125 12.15625 -0.578125 11.3125 -0.234375 C 10.476562 0.0976562 9.59375 0.265625 8.65625 0.265625 C 6.5625 0.265625 4.890625 -0.347656 3.640625 -1.578125 C 2.390625 -2.816406 1.765625 -4.675781 1.765625 -7.15625 L 1.765625 -16.21875 L 7.453125 -16.21875 L 7.453125 -8.078125 C 7.453125 -6.859375 7.679688 -5.96875 8.140625 -5.40625 C 8.597656 -4.851562 9.269531 -4.578125 10.15625 -4.578125 C 11.050781 -4.578125 11.78125 -4.890625 12.34375 -5.515625 C 12.914062 -6.148438 13.203125 -7.113281 13.203125 -8.40625 L 13.203125 -16.21875 Z M 18.890625 -16.21875 "/></g></g></g><g fill="#000000" fill-opacity="1"><g transform="translate(202.23653, 69.329675)"><g><path d="M 12.03125 -16.5 C 13.507812 -16.5 14.851562 -16.15625 16.0625 -15.46875 C 17.269531 -14.789062 18.226562 -13.816406 18.9375 -12.546875 C 19.644531 -11.285156 20 -9.816406 20 -8.140625 C 20 -6.460938 19.644531 -4.984375 18.9375 -3.703125 C 18.226562 -2.429688 17.269531 -1.453125 16.0625 -0.765625 C 14.851562 -0.078125 13.507812 0.265625 12.03125 0.265625 C 9.894531 0.265625 8.300781 -0.359375 7.25 -1.609375 L 7.25 0 L 1.828125 0 L 1.828125 -22.21875 L 7.515625 -22.21875 L 7.515625 -14.8125 C 8.609375 -15.9375 10.113281 -16.5 12.03125 -16.5 Z M 10.84375 -4.25 C 11.832031 -4.25 12.644531 -4.59375 13.28125 -5.28125 C 13.925781 -5.96875 14.25 -6.921875 14.25 -8.140625 C 14.25 -9.335938 13.925781 -10.273438 13.28125 -10.953125 C 12.644531 -11.628906 11.832031 -11.96875 10.84375 -11.96875 C 9.84375 -11.96875 9.019531 -11.628906 8.375 -10.953125 C 7.738281 -10.273438 7.421875 -9.335938 7.421875 -8.140625 C 7.421875 -6.921875 7.738281 -5.96875 8.375 -5.28125 C 9.019531 -4.59375 9.84375 -4.25 10.84375 -4.25 Z M 10.84375 -4.25 "/></g></g></g><g fill="#000000" fill-opacity="1"><g transform="translate(84.771955, 45.440049)"><g><path d="M 26.078125 -15.75 L 20.125 0 L 18.109375 0 L 13.140625 -12.90625 L 8.171875 0 L 6.171875 0 L 0.234375 -15.75 L 2.28125 -15.75 L 7.21875 -2.359375 L 12.28125 -15.75 L 14.09375 -15.75 L 19.125 -2.359375 L 24.125 -15.75 Z M 26.078125 -15.75 "/></g></g></g><g fill="#000000" fill-opacity="1"><g transform="translate(108.157075, 45.440049)"><g><path d="M 16.671875 -7.21875 L 3.5 -7.21875 C 3.625 -5.582031 4.253906 -4.257812 5.390625 -3.25 C 6.523438 -2.238281 7.960938 -1.734375 9.703125 -1.734375 C 10.679688 -1.734375 11.578125 -1.90625 12.390625 -2.25 C 13.210938 -2.601562 13.921875 -3.117188 14.515625 -3.796875 L 15.71875 -2.421875 C 15.019531 -1.585938 14.144531 -0.945312 13.09375 -0.5 C 12.050781 -0.0625 10.898438 0.15625 9.640625 0.15625 C 8.023438 0.15625 6.59375 -0.1875 5.34375 -0.875 C 4.09375 -1.570312 3.117188 -2.523438 2.421875 -3.734375 C 1.722656 -4.953125 1.375 -6.332031 1.375 -7.875 C 1.375 -9.40625 1.707031 -10.78125 2.375 -12 C 3.050781 -13.21875 3.972656 -14.164062 5.140625 -14.84375 C 6.304688 -15.519531 7.617188 -15.859375 9.078125 -15.859375 C 10.523438 -15.859375 11.828125 -15.519531 12.984375 -14.84375 C 14.148438 -14.164062 15.0625 -13.222656 15.71875 -12.015625 C 16.375 -10.804688 16.703125 -9.425781 16.703125 -7.875 Z M 9.078125 -14.046875 C 7.554688 -14.046875 6.28125 -13.5625 5.25 -12.59375 C 4.226562 -11.625 3.644531 -10.359375 3.5 -8.796875 L 14.671875 -8.796875 C 14.523438 -10.359375 13.9375 -11.625 12.90625 -12.59375 C 11.882812 -13.5625 10.609375 -14.046875 9.078125 -14.046875 Z M 9.078125 -14.046875 "/></g></g></g><g fill="#000000" fill-opacity="1"><g transform="translate(123.307998, 45.440049)"><g/></g></g><g fill="#000000" fill-opacity="1"><g transform="translate(128.218564, 45.440049)"><g><path d="M 8.46875 -15.859375 C 10.53125 -15.859375 12.109375 -15.34375 13.203125 -14.3125 C 14.296875 -13.289062 14.84375 -11.773438 14.84375 -9.765625 L 14.84375 0 L 12.8125 0 L 12.8125 -2.453125 C 12.332031 -1.640625 11.628906 -1 10.703125 -0.53125 C 9.773438 -0.0703125 8.671875 0.15625 7.390625 0.15625 C 5.640625 0.15625 4.242188 -0.257812 3.203125 -1.09375 C 2.160156 -1.9375 1.640625 -3.050781 1.640625 -4.4375 C 1.640625 -5.769531 2.125 -6.84375 3.09375 -7.65625 C 4.0625 -8.476562 5.601562 -8.890625 7.71875 -8.890625 L 12.71875 -8.890625 L 12.71875 -9.84375 C 12.71875 -11.207031 12.335938 -12.242188 11.578125 -12.953125 C 10.828125 -13.660156 9.722656 -14.015625 8.265625 -14.015625 C 7.265625 -14.015625 6.304688 -13.847656 5.390625 -13.515625 C 4.472656 -13.179688 3.6875 -12.726562 3.03125 -12.15625 L 2.0625 -13.734375 C 2.863281 -14.421875 3.820312 -14.945312 4.9375 -15.3125 C 6.050781 -15.675781 7.226562 -15.859375 8.46875 -15.859375 Z M 7.71875 -1.53125 C 8.914062 -1.53125 9.941406 -1.800781 10.796875 -2.34375 C 11.660156 -2.894531 12.300781 -3.691406 12.71875 -4.734375 L 12.71875 -7.3125 L 7.78125 -7.3125 C 5.09375 -7.3125 3.75 -6.367188 3.75 -4.484375 C 3.75 -3.566406 4.097656 -2.84375 4.796875 -2.3125 C 5.492188 -1.789062 6.46875 -1.53125 7.71875 -1.53125 Z M 7.71875 -1.53125 "/></g></g></g><g fill="#000000" fill-opacity="1"><g transform="translate(142.950289, 45.440049)"><g><path d="M 5 -12.65625 C 5.5 -13.71875 6.242188 -14.515625 7.234375 -15.046875 C 8.222656 -15.585938 9.441406 -15.859375 10.890625 -15.859375 L 10.890625 -13.796875 L 10.390625 -13.828125 C 8.734375 -13.828125 7.4375 -13.316406 6.5 -12.296875 C 5.5625 -11.285156 5.09375 -9.859375 5.09375 -8.015625 L 5.09375 0 L 2.96875 0 L 2.96875 -15.75 L 5 -15.75 Z M 5 -12.65625 "/></g></g></g><g fill="#000000" fill-opacity="1"><g transform="translate(152.02288, 45.440049)"><g><path d="M 16.671875 -7.21875 L 3.5 -7.21875 C 3.625 -5.582031 4.253906 -4.257812 5.390625 -3.25 C 6.523438 -2.238281 7.960938 -1.734375 9.703125 -1.734375 C 10.679688 -1.734375 11.578125 -1.90625 12.390625 -2.25 C 13.210938 -2.601562 13.921875 -3.117188 14.515625 -3.796875 L 15.71875 -2.421875 C 15.019531 -1.585938 14.144531 -0.945312 13.09375 -0.5 C 12.050781 -0.0625 10.898438 0.15625 9.640625 0.15625 C 8.023438 0.15625 6.59375 -0.1875 5.34375 -0.875 C 4.09375 -1.570312 3.117188 -2.523438 2.421875 -3.734375 C 1.722656 -4.953125 1.375 -6.332031 1.375 -7.875 C 1.375 -9.40625 1.707031 -10.78125 2.375 -12 C 3.050781 -13.21875 3.972656 -14.164062 5.140625 -14.84375 C 6.304688 -15.519531 7.617188 -15.859375 9.078125 -15.859375 C 10.523438 -15.859375 11.828125 -15.519531 12.984375 -14.84375 C 14.148438 -14.164062 15.0625 -13.222656 15.71875 -12.015625 C 16.375 -10.804688 16.703125 -9.425781 16.703125 -7.875 Z M 9.078125 -14.046875 C 7.554688 -14.046875 6.28125 -13.5625 5.25 -12.59375 C 4.226562 -11.625 3.644531 -10.359375 3.5 -8.796875 L 14.671875 -8.796875 C 14.523438 -10.359375 13.9375 -11.625 12.90625 -12.59375 C 11.882812 -13.5625 10.609375 -14.046875 9.078125 -14.046875 Z M 9.078125 -14.046875 "/></g></g></g><g clip-path="url(#dfb8ee8bff)"><path fill="#000000" d="M 35.015625 31.367188 L 20.652344 31.367188 L 20.652344 41.316406 L 35.171875 41.316406 C 41.34375 41.316406 45.4375 45.078125 45.4375 51.558594 L 45.4375 51.675781 C 45.4375 58.210938 41.34375 61.914062 35.171875 61.914062 L 30.597656 61.914062 L 30.597656 51.964844 L 11.027344 51.964844 L 11.027344 61.914062 L 20.652344 61.914062 L 20.652344 71.867188 L 34.800781 71.867188 C 48.203125 71.867188 56.023438 63.1875 56.023438 51.5 L 56.023438 51.386719 C 56.023438 39.699219 48.3125 31.367188 35.015625 31.367188 " fill-opacity="1" fill-rule="nonzero"/></g></svg>